<svg width="310" height="92" viewBox="0 0 310 92" fill="none" xmlns="http://www.w3.org/2000/svg">
<g clip-path="url(#clip0_2475_228)">
<path fill-rule="evenodd" clip-rule="evenodd" d="M85.6936 20.9619L116.267 74.6192C130.893 66.0766 135.904 47.1044 127.474 32.2835C119.043 17.4968 100.32 12.4193 85.6936 20.9619Z" fill="#FF861C"/>
<path fill-rule="evenodd" clip-rule="evenodd" d="M6.70887 1.8248C13.1079 -1.91474 21.3692 0.315259 25.0596 6.79942L61.6595 71.0578C65.35 77.542 63.1493 85.913 56.7502 89.6526C50.3511 93.3921 42.0899 91.1621 38.3995 84.678L1.79953 20.4196C-1.89093 13.9354 0.309804 5.56434 6.70887 1.8248Z" fill="white"/>
<path fill-rule="evenodd" clip-rule="evenodd" d="M46.9945 1.81796C53.3936 -1.92158 61.6548 0.308423 65.3453 6.79258L101.945 71.051C105.636 77.5351 103.435 85.9062 97.0359 89.6458C90.6368 93.3853 82.3756 91.1553 78.6851 84.6711L42.0852 20.4128C38.3947 13.9286 40.5954 5.55751 46.9945 1.81796Z" fill="white"/>
</g>
<path d="M189.922 0L182.071 30.4332H173.189L168.384 10.4045L163.407 30.4332H154.525L146.888 0H154.74L159.073 22.153L164.437 0H172.503L177.651 22.153L182.028 0H189.922Z" fill="white"/>
<path d="M192.143 18.2946C192.143 15.8091 192.601 13.627 193.516 11.7484C194.46 9.86985 195.733 8.42478 197.335 7.41323C198.937 6.40167 200.724 5.8959 202.698 5.8959C204.386 5.8959 205.859 6.24272 207.117 6.93635C208.404 7.62999 209.391 8.54038 210.078 9.66754V6.24272H217.415V30.4332H210.078V27.0084C209.363 28.1356 208.362 29.046 207.074 29.7396C205.816 30.4332 204.343 30.7801 202.655 30.7801C200.71 30.7801 198.937 30.2743 197.335 29.2627C195.733 28.2223 194.46 26.7628 193.516 24.8842C192.601 22.9767 192.143 20.7802 192.143 18.2946ZM210.078 18.338C210.078 16.4883 209.563 15.0288 208.533 13.9594C207.532 12.8901 206.302 12.3554 204.843 12.3554C203.384 12.3554 202.14 12.8901 201.11 13.9594C200.109 14.9999 199.609 16.4449 199.609 18.2946C199.609 20.1443 200.109 21.6183 201.11 22.7166C202.14 23.7859 203.384 24.3206 204.843 24.3206C206.302 24.3206 207.532 23.7859 208.533 22.7166C209.563 21.6472 210.078 20.1877 210.078 18.338Z" fill="white"/>
<path d="M230.059 10.2745C230.917 8.945 231.99 7.90455 233.277 7.15311C234.564 6.37277 235.995 5.9826 237.568 5.9826V13.8294H235.551C233.721 13.8294 232.348 14.234 231.432 15.0432C230.517 15.8236 230.059 17.2108 230.059 19.205V30.4332H222.722V6.24272H230.059V10.2745Z" fill="white"/>
<path d="M248.412 10.2745C249.27 8.945 250.342 7.90455 251.629 7.15311C252.917 6.37277 254.347 5.9826 255.92 5.9826V13.8294H253.903C252.073 13.8294 250.7 14.234 249.785 15.0432C248.869 15.8236 248.412 17.2108 248.412 19.205V30.4332H241.075V6.24272H248.412V10.2745Z" fill="white"/>
<path d="M281.995 17.9478C281.995 18.6414 281.952 19.364 281.866 20.1154H265.262C265.376 21.6183 265.848 22.7744 266.678 23.5836C267.536 24.3639 268.58 24.7541 269.81 24.7541C271.641 24.7541 272.914 23.9738 273.629 22.4131H281.437C281.037 24.0027 280.308 25.4333 279.249 26.705C278.22 27.9766 276.918 28.9737 275.345 29.6963C273.772 30.4188 272.013 30.7801 270.067 30.7801C267.722 30.7801 265.634 30.2743 263.803 29.2627C261.973 28.2512 260.542 26.8061 259.513 24.9275C258.483 23.0489 257.968 20.8524 257.968 18.338C257.968 15.8236 258.469 13.627 259.47 11.7484C260.5 9.86985 261.93 8.42478 263.76 7.41323C265.591 6.40167 267.693 5.8959 270.067 5.8959C272.384 5.8959 274.444 6.38722 276.246 7.36987C278.048 8.35252 279.449 9.75425 280.451 11.575C281.48 13.3958 281.995 15.5201 281.995 17.9478ZM274.487 15.997C274.487 14.7253 274.058 13.7137 273.2 12.9623C272.341 12.2109 271.269 11.8352 269.982 11.8352C268.752 11.8352 267.708 12.1964 266.85 12.919C266.02 13.6415 265.505 14.6675 265.305 15.997H274.487Z" fill="white"/>
<path d="M300.454 5.9826C303.257 5.9826 305.488 6.90745 307.147 8.75715C308.835 10.5779 309.678 13.0924 309.678 16.3004V30.4332H302.384V17.2975C302.384 15.679 301.97 14.4218 301.14 13.5259C300.311 12.6299 299.195 12.182 297.794 12.182C296.392 12.182 295.276 12.6299 294.447 13.5259C293.617 14.4218 293.203 15.679 293.203 17.2975V30.4332H285.866V6.24272H293.203V9.45078C293.946 8.38143 294.947 7.54328 296.206 6.93635C297.465 6.30052 298.88 5.9826 300.454 5.9826Z" fill="white"/>
<path d="M166.711 53.1765C168.455 53.5522 169.857 54.4337 170.915 55.821C171.974 57.1793 172.503 58.74 172.503 60.503C172.503 63.0463 171.616 65.0694 169.843 66.5723C168.098 68.0463 165.652 68.7833 162.506 68.7833H148.476V38.35H162.034C165.094 38.35 167.483 39.0581 169.199 40.4743C170.944 41.8905 171.816 43.8124 171.816 46.2401C171.816 48.032 171.344 49.5204 170.4 50.7054C169.485 51.8904 168.255 52.7141 166.711 53.1765ZM155.813 50.662H160.618C161.819 50.662 162.735 50.4019 163.364 49.8817C164.022 49.3326 164.351 48.5378 164.351 47.4973C164.351 46.4569 164.022 45.6621 163.364 45.113C162.735 44.5638 161.819 44.2893 160.618 44.2893H155.813V50.662ZM161.219 62.8007C162.449 62.8007 163.393 62.5261 164.05 61.977C164.737 61.3989 165.08 60.5752 165.08 59.5059C165.08 58.4365 164.723 57.5984 164.008 56.9915C163.321 56.3845 162.363 56.0811 161.133 56.0811H155.813V62.8007H161.219Z" fill="white"/>
<path d="M187.656 69.1301C185.311 69.1301 183.194 68.6243 181.306 67.6128C179.447 66.6012 177.974 65.1561 176.887 63.2775C175.829 61.3989 175.299 59.2024 175.299 56.688C175.299 54.2025 175.843 52.0204 176.93 50.1418C178.017 48.2343 179.504 46.7748 181.392 45.7632C183.28 44.7517 185.397 44.2459 187.742 44.2459C190.088 44.2459 192.204 44.7517 194.092 45.7632C195.98 46.7748 197.467 48.2343 198.554 50.1418C199.641 52.0204 200.185 54.2025 200.185 56.688C200.185 59.1735 199.627 61.37 198.511 63.2775C197.424 65.1561 195.923 66.6012 194.006 67.6128C192.118 68.6243 190.002 69.1301 187.656 69.1301ZM187.656 62.714C189.058 62.714 190.245 62.1937 191.217 61.1533C192.219 60.1128 192.719 58.6244 192.719 56.688C192.719 54.7516 192.233 53.2632 191.26 52.2227C190.316 51.1823 189.144 50.662 187.742 50.662C186.312 50.662 185.125 51.1823 184.181 52.2227C183.237 53.2343 182.765 54.7227 182.765 56.688C182.765 58.6244 183.223 60.1128 184.138 61.1533C185.082 62.1937 186.255 62.714 187.656 62.714Z" fill="white"/>
<path d="M238.444 44.5927L231.966 68.7833H223.856L220.081 53.0898L216.176 68.7833H208.11L201.588 44.5927H208.925L212.315 61.8903L216.348 44.5927H224.114L228.19 61.8036L231.537 44.5927H238.444Z" fill="white"/>
<path d="M244.932 42.0783C243.645 42.0783 242.587 41.7026 241.757 40.9512C240.956 40.1708 240.556 39.2171 240.556 38.0899C240.556 36.9338 240.956 35.9801 241.757 35.2287C242.587 34.4483 243.645 34.0582 244.932 34.0582C246.191 34.0582 247.22 34.4483 248.021 35.2287C248.851 35.9801 249.266 36.9338 249.266 38.0899C249.266 39.2171 248.851 40.1708 248.021 40.9512C247.22 41.7026 246.191 42.0783 244.932 42.0783ZM248.579 44.5927V68.7833H241.242V44.5927H248.579Z" fill="white"/>
<path d="M276.464 56.2978C276.464 56.9915 276.421 57.714 276.336 58.4654H259.731C259.846 59.9683 260.318 61.1244 261.147 61.9336C262.005 62.714 263.049 63.1041 264.279 63.1041C266.11 63.1041 267.383 62.3238 268.098 60.7631H275.907C275.506 62.3527 274.777 63.7833 273.718 65.055C272.689 66.3266 271.387 67.3237 269.814 68.0463C268.241 68.7688 266.482 69.1301 264.537 69.1301C262.191 69.1301 260.103 68.6243 258.272 67.6128C256.442 66.6012 255.012 65.1561 253.982 63.2775C252.952 61.3989 252.437 59.2024 252.437 56.688C252.437 54.1736 252.938 51.9771 253.939 50.0985C254.969 48.2199 256.399 46.7748 258.23 45.7632C260.06 44.7517 262.163 44.2459 264.537 44.2459C266.854 44.2459 268.913 44.7372 270.715 45.7199C272.517 46.7025 273.919 48.1043 274.92 49.9251C275.95 51.7459 276.464 53.8701 276.464 56.2978ZM268.956 54.347C268.956 53.0753 268.527 52.0638 267.669 51.3123C266.811 50.5609 265.738 50.1852 264.451 50.1852C263.221 50.1852 262.177 50.5464 261.319 51.269C260.489 51.9915 259.974 53.0175 259.774 54.347H268.956Z" fill="white"/>
<path d="M160.7 91.1878L158.867 89.3299C158.182 90.0434 157.45 90.5752 156.671 90.9252C155.893 91.2618 155.013 91.4301 154.033 91.4301C153.066 91.4301 152.207 91.2551 151.455 90.905C150.716 90.555 150.139 90.0569 149.723 89.4107C149.32 88.7645 149.118 88.0106 149.118 87.1489C149.118 86.1662 149.394 85.3046 149.944 84.5641C150.508 83.8102 151.334 83.2178 152.422 82.787C151.992 82.2754 151.683 81.8042 151.495 81.3734C151.307 80.9426 151.213 80.4714 151.213 79.9599C151.213 79.3675 151.361 78.8357 151.656 78.3645C151.965 77.8799 152.401 77.5029 152.965 77.2337C153.529 76.9644 154.181 76.8298 154.919 76.8298C155.644 76.8298 156.275 76.9711 156.812 77.2538C157.35 77.5366 157.752 77.9337 158.021 78.4453C158.289 78.9434 158.41 79.5021 158.383 80.1214H156.551C156.564 79.5694 156.41 79.1386 156.087 78.829C155.765 78.5059 155.349 78.3443 154.839 78.3443C154.301 78.3443 153.865 78.4991 153.529 78.8088C153.207 79.105 153.046 79.4887 153.046 79.9599C153.046 80.3637 153.153 80.7542 153.368 81.1311C153.597 81.5081 153.972 81.9725 154.496 82.5245L158.686 86.7451L159.048 86.1796L160.418 83.8775H162.392L160.74 86.7451C160.512 87.1489 160.243 87.573 159.934 88.0173L163.097 91.1878H160.7ZM154.033 89.8549C154.758 89.8549 155.409 89.7136 155.987 89.4309C156.577 89.1482 157.135 88.7106 157.658 88.1183L153.529 83.9583C151.811 84.618 150.951 85.6613 150.951 87.0884C150.951 87.8827 151.233 88.5423 151.797 89.0674C152.375 89.5924 153.12 89.8549 154.033 89.8549Z" fill="white"/>
<path d="M174.635 91.3291C173.708 91.3291 172.876 91.1676 172.137 90.8445C171.412 90.5079 170.841 90.0502 170.425 89.4713C170.009 88.8789 169.794 88.199 169.781 87.4317H171.734C171.801 88.0913 172.07 88.65 172.54 89.1078C173.023 89.552 173.722 89.7742 174.635 89.7742C175.507 89.7742 176.192 89.5588 176.689 89.128C177.199 88.6837 177.454 88.1183 177.454 87.4317C177.454 86.8931 177.307 86.4556 177.011 86.119C176.716 85.7825 176.347 85.5267 175.904 85.3517C175.46 85.1767 174.863 84.9882 174.111 84.7862C173.184 84.5439 172.439 84.3016 171.875 84.0592C171.325 83.8169 170.848 83.44 170.445 82.9284C170.056 82.4033 169.861 81.7033 169.861 80.8282C169.861 80.0608 170.056 79.381 170.445 78.7886C170.835 78.1962 171.378 77.7385 172.077 77.4154C172.788 77.0923 173.601 76.9307 174.514 76.9307C175.83 76.9307 176.904 77.2606 177.736 77.9203C178.582 78.5799 179.059 79.455 179.166 80.5455H177.152C177.085 80.007 176.803 79.5358 176.306 79.1319C175.81 78.7146 175.152 78.5059 174.333 78.5059C173.567 78.5059 172.943 78.7078 172.459 79.1117C171.976 79.5021 171.734 80.0541 171.734 80.7676C171.734 81.2792 171.875 81.6965 172.157 82.0196C172.453 82.3428 172.809 82.5918 173.225 82.7668C173.654 82.9284 174.252 83.1169 175.017 83.3323C175.944 83.5881 176.689 83.8438 177.253 84.0996C177.817 84.342 178.3 84.7257 178.703 85.2507C179.106 85.7623 179.307 86.4623 179.307 87.3509C179.307 88.0375 179.126 88.6837 178.764 89.2895C178.401 89.8953 177.864 90.3867 177.152 90.7637C176.441 91.1406 175.601 91.3291 174.635 91.3291Z" fill="white"/>
<path d="M195.278 79.9195C196.137 79.9195 196.903 80.1012 197.574 80.4647C198.245 80.8147 198.776 81.3465 199.165 82.06C199.555 82.7736 199.749 83.6419 199.749 84.6651V91.1878H197.936V84.9276C197.936 83.8237 197.661 82.9822 197.111 82.4033C196.574 81.811 195.842 81.5148 194.915 81.5148C193.962 81.5148 193.203 81.8244 192.639 82.4437C192.075 83.0495 191.793 83.9314 191.793 85.0891V91.1878H189.981V84.9276C189.981 83.8237 189.705 82.9822 189.155 82.4033C188.618 81.811 187.886 81.5148 186.959 81.5148C186.006 81.5148 185.247 81.8244 184.683 82.4437C184.12 83.0495 183.838 83.9314 183.838 85.0891V91.1878H182.005V80.1214H183.838V81.7167C184.2 81.1378 184.683 80.6936 185.288 80.3839C185.905 80.0743 186.583 79.9195 187.322 79.9195C188.248 79.9195 189.068 80.1281 189.779 80.5455C190.491 80.9628 191.021 81.5754 191.37 82.3831C191.679 81.6023 192.189 80.9965 192.901 80.5657C193.613 80.1349 194.405 79.9195 195.278 79.9195Z" fill="white"/>
<path d="M203.702 78.3241C203.353 78.3241 203.058 78.203 202.816 77.9606C202.575 77.7183 202.454 77.4221 202.454 77.0721C202.454 76.7221 202.575 76.4259 202.816 76.1836C203.058 75.9412 203.353 75.8201 203.702 75.8201C204.038 75.8201 204.32 75.9412 204.548 76.1836C204.79 76.4259 204.911 76.7221 204.911 77.0721C204.911 77.4221 204.79 77.7183 204.548 77.9606C204.32 78.203 204.038 78.3241 203.702 78.3241ZM204.589 80.1214V91.1878H202.756V80.1214H204.589Z" fill="white"/>
<path d="M209.948 81.636V88.1586C209.948 88.6972 210.062 89.0808 210.291 89.3097C210.519 89.5251 210.915 89.6328 211.479 89.6328H212.828V91.1878H211.177C210.156 91.1878 209.391 90.9522 208.881 90.481C208.37 90.0098 208.115 89.2357 208.115 88.1586V81.636H206.685V80.1214H208.115V77.3346H209.948V80.1214H212.828V81.636H209.948Z" fill="white"/>
<path d="M220.528 79.9195C221.36 79.9195 222.112 80.1012 222.783 80.4647C223.455 80.8147 223.978 81.3465 224.354 82.06C224.744 82.7736 224.938 83.6419 224.938 84.6651V91.1878H223.126V84.9276C223.126 83.8237 222.851 82.9822 222.3 82.4033C221.749 81.811 220.998 81.5148 220.044 81.5148C219.077 81.5148 218.305 81.8177 217.728 82.4235C217.164 83.0294 216.882 83.9112 216.882 85.069V91.1878H215.049V76.2441H216.882V81.6965C217.244 81.1311 217.741 80.6936 218.372 80.3839C219.017 80.0743 219.735 79.9195 220.528 79.9195Z" fill="white"/>
<defs>
<clipPath id="clip0_2475_228">
<rect width="131.57" height="91.4301" fill="white"/>
</clipPath>
</defs>
</svg>
